<svg id="Capa_1" enable-background="new 0 0 512 512" height="512" viewBox="0 0 512 512" width="512" xmlns="http://www.w3.org/2000/svg"><path d="m500 165v27.515l-22-22v-29.515h-12v17.515l-20-20v-15.515h10v-12h-10v-26h-12v26h-14.292l-29.708-59.417v-30.583h-12v30.583l-29.708 59.417h-14.292v-26h-12v26h-10v12h10v20h-132v-20h10v-12h-10v-26h-12v26h-14.292l-29.708-59.417v-30.583h-12v30.583l-29.708 59.417h-14.292v-26h-12v26h-10v12h10v15.515l-20 20v-17.515h-12v29.515l-22 22v-27.515h-12v326h512v-326zm-.243 44.243.243-.243v15.515l-54-54v-15.029zm-487.757 31.757.243.243 21.757-21.758v147.515h-22zm54-2h-10v12h10v116h-20v-159.515l20-20zm88-64h-20v-26h-12v26h-20v-52h52zm-52 12h52v52h-20v-26h-12v26h-20zm52 64v52h-20v-26h-12v26h-20v-52zm36-12v-52h132v52h-10v12h10v116h-8v24h-116v-24h-8v-116h10v-12zm48-64v-20h36v20zm172 0h-20v-26h-12v26h-20v-52h52zm-52 12h52v52h-20v-26h-12v26h-20zm52 64v52h-20v-26h-12v26h-20v-52zm36-12v-51.515l20 20v159.515h-20v-116h10v-12zm-12 128h-12v-116h12zm-56-26v26h-20v-52h52v52h-20v-26zm-32 26h-12v-116h12zm-148 36h116v42.849c-12.596-18.6-33.894-30.849-58-30.849s-45.404 12.249-58 30.849zm-20-36h-12v-116h12zm-56-26v26h-20v-52h52v52h-20v-26zm-32 26h-12v-116h12zm96 12v100h-132v-100zm70 48c29.956 0 54.678 22.827 57.69 52h-115.38c3.012-29.173 27.734-52 57.69-52zm70-48h132v100h-132zm152-159.515 21.757 21.757.243-.242v126h-22zm-44 19.515h-12v-116h12zm-50-172.584 22.292 44.584h-44.583zm-38 56.584v116h-12v-116zm-24 52h-36v-20h36zm-96-20v20h-36v-20zm-48 84h-12v-116h12zm-50-172.584 22.292 44.584h-44.583zm-38 56.584v116h-12v-116zm-77.757 86.243 53.757-53.758v15.029l-54 54v-15.514zm-.243 169.757h30v100h-30zm458 100v-100h30v100z"/></svg>