<svg id="Glyph" enable-background="new 0 0 64 64" height="512" viewBox="0 0 64 64" width="512" xmlns="http://www.w3.org/2000/svg"><path d="m58 20h-12v-4h7c1.105 0 2-.895 2-2s-.895-2-2-2h-37c-1.657 0-3-1.343-3-3s1.343-3 3-3h37c1.105 0 2-.895 2-2s-.895-2-2-2h-37c-3.866 0-7 3.134-7 7s3.134 7 7 7h2v4h-12l-4 13v2c0 1.657 1.343 3 3 3s3-1.343 3-3c0 1.657 1.343 3 3 3s3-1.343 3-3c0 1.657 1.343 3 3 3s3-1.343 3-3c0 1.657 1.343 3 3 3s3-1.343 3-3c0 1.657 1.343 3 3 3s3-1.343 3-3c0 1.657 1.343 3 3 3s3-1.343 3-3c0 1.657 1.343 3 3 3s3-1.343 3-3c0 1.657 1.343 3 3 3s3-1.343 3-3c0 1.657 1.343 3 3 3s3-1.343 3-3c0 1.657 1.343 3 3 3s3-1.343 3-3v-2zm-38-4h24v4h-24z"/><path d="m15 9c0 .551.448 1 1 1h37v-2h-37c-.552 0-1 .449-1 1z"/><path d="m56 38.974c-.838.635-1.87 1.026-3 1.026s-2.162-.391-3-1.026c-.838.635-1.87 1.026-3 1.026s-2.162-.391-3-1.026c-.838.635-1.87 1.026-3 1.026s-2.162-.391-3-1.026c-.838.635-1.87 1.026-3 1.026s-2.162-.391-3-1.026c-.838.635-1.87 1.026-3 1.026s-2.162-.391-3-1.026c-.838.635-1.87 1.026-3 1.026s-2.162-.391-3-1.026c-.838.635-1.87 1.026-3 1.026s-2.162-.391-3-1.026c-.838.635-1.87 1.026-3 1.026s-2.162-.391-3-1.026c-.838.635-1.87 1.026-3 1.026s-2.162-.391-3-1.026v19.026c0 2.209 1.791 4 4 4h5v-5h4v5h2v-5h4v5h37c2.209 0 4-1.791 4-4v-19.026c-.838.635-1.87 1.026-3 1.026s-2.162-.391-3-1.026zm-41 16.026h-4v-4h4zm0-6h-4v-5h4zm6 6h-4v-4h4zm0-6h-4v-5h4zm37 8h-1v-9h-2v9h-1v-9h-2v9h-2v-9h-4v9h-3.368-8.632v-10h-8v-5h32z"/><path d="m37.5 50.116h9v4h-9z" transform="matrix(.286 -.958 .958 .286 -19.938 77.491)"/></svg>