<?xml version="1.0" encoding="iso-8859-1"?>
<!-- Generator: Adobe Illustrator 17.1.0, SVG Export Plug-In . SVG Version: 6.00 Build 0)  -->
<!DOCTYPE svg PUBLIC "-//W3C//DTD SVG 1.1//EN" "http://www.w3.org/Graphics/SVG/1.1/DTD/svg11.dtd">
<svg version="1.1" id="Capa_1" xmlns="http://www.w3.org/2000/svg" xmlns:xlink="http://www.w3.org/1999/xlink" x="0px" y="0px"
	 viewBox="0 0 511 511" style="enable-background:new 0 0 511 511;" xml:space="preserve">
<path d="M375.436,344l-2.168,0.019c-10.932,0-20.243-1.104-27.672-3.28c-0.16-0.047-0.321-0.079-0.482-0.115l-10.498-31.495
	c-0.669-2.006-2.154-3.637-4.088-4.491c-1.935-0.854-4.141-0.851-6.073,0.009l-4.569,2.031c-0.375-4.555-0.44-9.287-0.449-13.959
	l39.976,13.325c0.775,0.258,1.576,0.385,2.371,0.385c1.683,0,3.343-0.567,4.693-1.649C402.398,275.971,423,234.683,423,191.5
	c0-28.559-8.786-55.294-24.035-78.119c-0.734-28.373-16.146-56.836-42.555-78.401C328.786,12.423,292.948,0,255.5,0
	s-73.286,12.423-100.91,34.98c-26.409,21.565-41.821,50.028-42.555,78.401C96.786,136.206,88,162.941,88,191.5
	c0,43.183,20.602,84.471,56.523,113.279c1.987,1.593,4.649,2.068,7.064,1.264l40.294-13.431c0.039,0.025,0.078,0.049,0.117,0.073
	c-0.009,4.747-0.076,9.554-0.466,14.177l-4.986-2.216c-1.932-0.859-4.138-0.862-6.073-0.009c-1.935,0.854-3.419,2.484-4.088,4.491
	l-10.537,31.612c-0.133,0.03-0.267,0.054-0.4,0.093c-7.36,2.102-16.539,3.167-27.281,3.167H135.5C82.841,344,40,386.841,40,439.5v40
	c0,17.369,14.131,31.5,31.5,31.5h184h184c17.369,0,31.5-14.131,31.5-31.5v-40C471,386.841,428.159,344,375.436,344z
	 M355.513,419.255L263,386.215v-37.841l59.997-26.666L355.513,419.255z M151.03,193.87c0.622-17.139,11.036-33.385,29.485-45.904
	C200.439,134.446,227.07,127,255.5,127s55.061,7.446,74.985,20.966c18.449,12.519,28.863,28.765,29.485,45.904
	C358.705,250.401,312.329,296,255.5,296S152.295,250.401,151.03,193.87z M347.552,142.076c-2.698-2.263-5.578-4.442-8.644-6.522
	c-20.592-13.973-47.314-22.151-75.907-23.374V87.272C299.58,89.878,331.012,111.394,347.552,142.076z M248,112.18
	c-28.594,1.223-55.316,9.401-75.907,23.374c-3.067,2.081-5.946,4.26-8.644,6.522c16.54-30.682,47.972-52.198,84.552-54.804V112.18z
	 M164.077,46.599C189.031,26.222,221.5,15,255.5,15s66.469,11.222,91.423,31.599c15.13,12.355,26.108,27.132,32.035,42.625
	C348.314,58.989,304.315,40,255.5,40s-92.814,18.989-123.457,49.224C137.969,73.731,148.947,58.954,164.077,46.599z M150.782,290.5
	C120.363,264.711,103,228.847,103,191.5C103,116.233,171.411,55,255.5,55S408,116.233,408,191.5c0,37.347-17.363,73.211-47.782,99
	l-26.412-8.804c23.969-20.837,39.577-51.047,41.07-84.865c0.078-0.433,0.125-0.876,0.125-1.332c0-0.562-0.014-1.122-0.029-1.681
	c0.015-0.772,0.029-1.543,0.029-2.319C375,125.607,321.393,72,255.5,72S136,125.607,136,191.5c0,0.775,0.015,1.547,0.03,2.319
	c-0.016,0.56-0.03,1.12-0.03,1.681c0,0.455,0.047,0.899,0.125,1.332c1.492,33.817,17.101,64.028,41.07,84.865L150.782,290.5z
	 M206.024,312.472c0.514-3.935,0.753-7.887,0.869-11.814C221.751,307.3,238.201,311,255.5,311c17.465,0,34.067-3.767,49.037-10.53
	c0.112,3.986,0.35,8,0.871,11.997c0.026,0.203,0.065,0.401,0.106,0.598L255.5,335.293l-49.619-22.053
	C205.94,312.989,205.99,312.733,206.024,312.472z M188.003,321.708L248,348.374v37.841l-92.513,33.04L188.003,321.708z M55,479.5
	v-40c0-44.388,36.112-80.5,80.5-80.5h2.667c8.127,0,15.531-0.578,22.16-1.697l-23.942,71.826c-0.907,2.722-0.182,5.724,1.869,7.731
	c1.426,1.396,3.318,2.141,5.248,2.141c0.846,0,1.698-0.143,2.521-0.437L248,402.143V496H71.5C62.402,496,55,488.598,55,479.5z
	 M456,479.5c0,9.098-7.402,16.5-16.5,16.5H263v-93.857l101.978,36.42c0.823,0.294,1.676,0.437,2.521,0.437
	c1.929,0,3.822-0.745,5.248-2.141c2.051-2.007,2.776-5.009,1.869-7.731l-23.958-71.873c6.717,1.173,14.195,1.763,22.674,1.763
	L375.5,359c44.388,0,80.5,36.112,80.5,80.5V479.5z"/>
<g>
</g>
<g>
</g>
<g>
</g>
<g>
</g>
<g>
</g>
<g>
</g>
<g>
</g>
<g>
</g>
<g>
</g>
<g>
</g>
<g>
</g>
<g>
</g>
<g>
</g>
<g>
</g>
<g>
</g>
</svg>
