<svg id="Capa_1" enable-background="new 0 0 508 508" height="512" viewBox="0 0 508 508" width="512" xmlns="http://www.w3.org/2000/svg"><g><path d="m351.656 123.671-19.967-28.943c-9.554-13.849-23.573-23.742-39.474-27.857-25.001-6.472-51.431-6.472-76.43 0-15.902 4.115-29.921 14.009-39.474 27.857l-19.967 28.944c-9.619 13.943-14.504 30.266-14.129 47.201l.598 26.931c.356 16.065 9.186 30.786 23.042 38.418 13.26 7.304 22.861 19.834 26.367 34.389 1.427 5.964 3.323 11.857 5.699 17.625 1.915 4.649 5.428 8.251 9.699 10.334v9.612c0 14.198 9.717 26.399 23.7 29.337 15.036 3.159 30.648 3.352 45.361 0 13.932-3.174 23.7-15.139 23.7-29.337v-9.619c4.27-2.083 7.784-5.679 9.699-10.327 2.394-5.811 4.299-11.75 5.729-17.76 3.513-14.415 13.027-26.852 26.142-34.146 13.978-7.773 22.882-22.535 23.236-38.525l.598-26.931c.376-16.936-4.51-33.259-14.129-47.203zm-71.275 184.511c0 4.734-3.292 8.767-8.005 9.806-12.021 2.648-24.73 2.648-36.752 0-4.713-1.039-8.005-5.071-8.005-9.806v-9.618c7.347-2.091 14.314-5.493 20.487-10.053 3.526-2.604 8.264-2.604 11.789 0 6.173 4.561 13.14 7.962 20.486 10.053zm65.409-137.752-.598 26.931c-.198 8.919-5.165 17.153-12.962 21.49-5.103 2.838-9.797 6.26-14.031 10.14-2.158-18.166-8.504-35.866-18.917-51.625-1.5-2.271-1.978-5.122-1.31-7.822l2.856-11.544h7.172c5.523 0 10-4.478 10-10s-4.477-10-10-10h-7.172c-9.218 0-17.202 6.25-19.415 15.197l-2.855 11.543c-2.007 8.109-.535 16.73 4.038 23.65 18.11 27.407 21.478 61.859 9.016 92.169-7.147-1.017-14.002-3.828-19.833-8.136-2.429-1.795-5.055-3.159-7.779-4.133v-22.53c2.482-.36 4.948-.847 7.383-1.477 5.347-1.384 8.56-6.84 7.177-12.187-1.383-5.346-6.839-8.557-12.186-7.177-8.096 2.096-16.652 2.096-24.748 0-5.345-1.379-10.802 1.83-12.186 7.177s1.83 10.803 7.177 12.187c2.435.63 4.901 1.116 7.383 1.477v22.531c-2.724.975-5.349 2.339-7.778 4.133-5.831 4.307-12.686 7.118-19.833 8.135-12.462-30.309-9.094-64.761 9.016-92.168 4.573-6.92 6.044-15.541 4.038-23.65l-2.855-11.542c-2.214-8.949-10.197-15.199-19.415-15.199h-7.173c-5.523 0-10 4.478-10 10s4.477 10 10 10h7.172l2.855 11.543c.668 2.7.191 5.552-1.31 7.822-10.414 15.761-16.76 33.463-18.918 51.631-4.308-3.947-9.089-7.424-14.297-10.292-7.632-4.204-12.497-12.383-12.696-21.344l-.598-26.931c-.282-12.702 3.382-24.943 10.597-35.401l19.967-28.944c6.823-9.891 16.775-16.941 28.022-19.853 21.722-5.621 44.685-5.621 66.408 0 11.247 2.911 21.198 9.962 28.022 19.854l19.967 28.942c7.217 10.459 10.881 22.701 10.599 35.403zm102.853 258.039-27.616-104.982c11.325-20.594 19.06-43.184 22.515-66.682 7.706-52.399-3.552-105.236-31.719-149.798 27.22-29.08-6.169-77.587-43.007-62.677l-8.526-12.35c-13.81-20.03-36.86-31.98-61.19-31.98-5.52 0-10.01 4.49-10.01 10s4.49 10 10.01 10c17.76 0 34.65 8.72 44.73 23.34l7.9 11.451-7.544 5.181c-4.56 3.131-5.711 9.37-2.57 13.922l33 47.831c3.131 4.539 9.346 5.686 13.892 2.564l7.377-5.066c24.903 40.194 34.789 87.628 27.871 134.671-6.952 47.276-33.114 90.494-71.778 118.572 0 0-85.472 61.642-85.472 61.647-4.93 3.48-9.225 7.771-12.699 12.674-3.438-4.732-7.646-8.887-12.448-12.279.002-.003-85.333-62.042-85.333-62.042-38.664-28.078-64.826-71.296-71.778-118.572-6.918-47.044 2.968-94.477 27.871-134.671l7.377 5.066c4.546 3.122 10.761 1.974 13.892-2.564l33-47.831c3.141-4.553 1.99-10.791-2.57-13.922l-7.48-5.136 7.93-11.496c10.08-14.62 26.97-23.34 44.73-23.34 5.52 0 10.01-4.49 10.01-10s-4.49-10-10.01-10c-24.33 0-47.38 11.95-61.19 31.979l-8.546 12.38c-36.868-15.006-70.319 33.547-43.081 62.647-28.167 44.561-39.425 97.397-31.719 149.798 3.455 23.498 11.19 46.088 22.515 66.682l-27.62 104.983c-7.519 32.015 10.094 61.434 42.422 69.003l45.601 9.773c2.131.489 4.345.755 6.62.755h80c7.706 0 14.74-2.922 20.059-7.714 5.304 4.793 12.291 7.714 19.941 7.714h80c2.483 0 4.894-.309 7.202-.88l45.018-9.648c32.328-7.569 49.941-36.988 42.423-69.003zm-63.221-326.299-21.642-31.368 7.554-5.211c20.897-14.418 42.539 16.949 21.642 31.367zm-248.756-36.579 7.554 5.211-21.642 31.368-7.554-5.212c-20.897-14.418.745-45.785 21.642-31.367zm-12.367 416.252-18.328-3.928c-21.035-5.431-32.261-24.786-27.271-44.358l22.939-87.203c11.925 16.083 26.269 30.412 42.634 42.297l47.301 34.351c-8.204.085-16.41.891-24.573 2.429-24.917 4.69-45.291 28.472-42.702 56.412zm109.701 6.157h-80c-5.42 0-10-4.764-10-10.401 0-15.927 11.238-29.556 26.701-32.515 16.622-3.181 32.783-2.487 47.108.501 15.181 3.167 26.191 16.826 26.191 32.415 0 5.514-4.486 10-10 10zm120 0h-80c-5.42 0-10-4.764-10-10.401 0-15.927 11.238-29.556 26.701-32.515 16.622-3.181 32.783-2.487 47.108.501 15.181 3.167 26.191 16.826 26.191 32.415 0 5.514-4.486 10-10 10zm48.029-10.085-18.283 3.918c2.608-27.027-17.44-50.69-41.818-55.82-8.47-1.783-17.005-2.768-25.553-2.974l47.353-34.389c16.365-11.885 30.708-26.213 42.634-42.297l22.939 87.203c4.989 19.573-6.237 38.928-27.272 44.359zm-157.939-467.915c0-5.51 4.49-10 10.01-10 5.51 0 9.99 4.49 9.99 10s-4.48 10-9.99 10c-5.52 0-10.01-4.49-10.01-10z"/></g></svg>