<?xml version="1.0" encoding="iso-8859-1"?>
<!-- Generator: Adobe Illustrator 19.0.0, SVG Export Plug-In . SVG Version: 6.00 Build 0)  -->
<svg version="1.1" id="Capa_1" xmlns="http://www.w3.org/2000/svg" xmlns:xlink="http://www.w3.org/1999/xlink" x="0px" y="0px"
	 viewBox="0 0 511.999 511.999" style="enable-background:new 0 0 511.999 511.999;" xml:space="preserve">
<g>
	<g>
		<path d="M116.985,216.672H52.026c-4.143,0-7.501,3.359-7.501,7.501v64.959c0,4.143,3.359,7.501,7.501,7.501h64.959
			c4.143,0,7.501-3.359,7.501-7.501v-64.959C124.486,220.03,121.128,216.672,116.985,216.672z M77.004,281.631H59.527v-17.477
			h17.477V281.631z M77.005,249.151H59.527v-17.477h17.478V249.151z M109.485,281.631H92.008v-17.477h17.477V281.631z
			 M109.485,249.151H92.008v-17.477h17.477V249.151z"/>
	</g>
</g>
<g>
	<g>
		<path d="M116.985,361.597H52.026c-4.143,0-7.501,3.359-7.501,7.501v64.959c0,4.144,3.359,7.501,7.501,7.501h64.959
			c4.143,0,7.501-3.358,7.501-7.501v-64.959C124.486,364.955,121.128,361.597,116.985,361.597z M77.004,426.556H59.527v-17.477
			h17.477V426.556z M77.005,394.078H59.527v-17.478h17.478V394.078z M109.485,426.556H92.008v-17.477h17.477V426.556z
			 M109.485,394.077H92.008v-17.478h17.477V394.077z"/>
	</g>
</g>
<g>
	<g>
		<path d="M460.069,216.672H395.11c-4.143,0-7.501,3.359-7.501,7.501v64.959c0,4.143,3.359,7.501,7.501,7.501h64.959
			c4.143,0,7.501-3.359,7.501-7.501v-64.959C467.57,220.03,464.212,216.672,460.069,216.672z M420.088,281.631h-17.477v-17.477
			h17.477V281.631z M420.088,249.151h-17.477v-17.477h17.477V249.151z M452.568,281.631H435.09v-17.477h17.477V281.631z
			 M452.568,249.151H435.09v-17.477h17.477V249.151z"/>
	</g>
</g>
<g>
	<g>
		<path d="M460.069,361.597H395.11c-4.143,0-7.501,3.359-7.501,7.501v64.959c0,4.144,3.359,7.501,7.501,7.501h64.959
			c4.143,0,7.501-3.358,7.501-7.501v-64.959C467.57,364.955,464.212,361.597,460.069,361.597z M420.088,426.556h-17.477v-17.477
			h17.477V426.556z M420.088,394.078h-17.477v-17.478h17.477V394.078z M452.568,426.556H435.09v-17.477h17.477V426.556z
			 M452.568,394.077H435.09v-17.478h17.477V394.077z"/>
	</g>
</g>
<g>
	<g>
		<circle cx="232.63" cy="423.474" r="9.247"/>
	</g>
</g>
<g>
	<g>
		<circle cx="279.468" cy="423.474" r="9.247"/>
	</g>
</g>
<g>
	<g>
		<path d="M275.95,238.983h-39.805c-4.143,0-7.501,3.359-7.501,7.501v39.805c0,4.143,3.359,7.501,7.501,7.501h39.805
			c4.143,0,7.501-3.359,7.501-7.501v-39.805C283.451,242.341,280.093,238.983,275.95,238.983z M268.449,278.788h-24.802v-24.802
			h24.802V278.788z"/>
	</g>
</g>
<g>
	<g>
		<path d="M508.825,179.772l-74.212-69.378c-1.912-1.787-4.407-2.771-7.024-2.771c-1.785,0-3.508,0.468-5.033,1.326V72.211h6.609
			c4.143,0,7.501-3.359,7.501-7.501V34.155c0-4.143-3.359-7.501-7.501-7.501h-78.578c-4.143,0-7.501,3.359-7.501,7.501v30.553
			c0,4.143,3.359,7.501,7.501,7.501h6.609v26.926H154.898V72.211h6.61c4.143,0,7.501-3.359,7.501-7.501V34.155
			c0-4.143-3.359-7.501-7.501-7.501H82.929c-4.143,0-7.501,3.359-7.501,7.501v30.553c0,4.143,3.359,7.501,7.501,7.501h6.609v36.737
			c-1.525-0.858-3.248-1.326-5.033-1.326c-2.617,0-5.112,0.984-7.024,2.772L3.27,179.772c-3.106,2.904-4.104,7.335-2.543,11.29
			c1.56,3.955,5.316,6.51,9.568,6.51h3.819v115.002c0,4.143,3.359,7.501,7.501,7.501c4.143,0,7.501-3.359,7.501-7.501V197.572
			h110.778v23.913v82.302c0,0-51.631,0-51.763,0c-5.747,0-9.405,6.522-6.392,11.428l20.437,33.267
			c1.364,2.221,3.785,3.575,6.392,3.575h31.326v118.287H29.117V342.58c0-4.143-3.359-7.501-7.501-7.501
			c-4.143,0-7.501,3.359-7.501,7.501v135.265c0,4.143,3.359,7.501,7.501,7.501H490.48c4.143,0,7.501-3.359,7.501-7.501V197.572
			c0,0,3.817,0,3.819,0C510.932,197.572,515.497,186.011,508.825,179.772z M358.089,41.656h63.575v15.551h-63.575V41.656z
			 M407.554,72.211v50.347l-18.722,17.503l-16.631-35.11v-32.74H407.554z M359.951,114.139l17.374,36.678
			c0,0-30.947,28.931-30.972,28.955c-6.682,6.246-2.074,17.8,7.024,17.8h3.82v16.412H154.898v-16.412c0,0,3.816,0,3.82,0
			c9.109,0,13.692-11.565,7.024-17.8l-30.972-28.955l17.374-36.678H359.951z M357.198,228.986v74.801h-202.3v-74.801H357.198z
			 M123.264,140.06l-18.722-17.503V72.211h35.353v32.74L123.264,140.06z M90.431,41.656h63.576v15.551H90.431V41.656z
			 M22.247,182.569l62.26-58.204l62.26,58.204H22.247z M112.763,337.055l-11.22-18.264h309.008l-11.22,18.264H112.763z
			 M248.546,470.343h-59.373v-93.744h59.373V470.343z M322.922,470.344h-59.373v-93.744h59.373V470.344z M357.198,470.344h-19.273
			V369.098c0-4.143-3.359-7.501-7.501-7.501H181.671c-4.143,0-7.501,3.359-7.501,7.501v101.246h-19.273V352.057h0.001h202.3V470.344
			z M372.201,470.343V352.057h31.326c2.583,0,5.04-1.374,6.392-3.575c0,0,20.43-33.257,20.436-33.267
			c3.018-4.913-0.651-11.428-6.392-11.428h-51.763v-82.302v-23.913h110.778v272.77H372.201z M365.33,182.57l62.26-58.205
			l62.259,58.205H365.33z"/>
	</g>
</g>
<g>
</g>
<g>
</g>
<g>
</g>
<g>
</g>
<g>
</g>
<g>
</g>
<g>
</g>
<g>
</g>
<g>
</g>
<g>
</g>
<g>
</g>
<g>
</g>
<g>
</g>
<g>
</g>
<g>
</g>
</svg>
