<svg id="Layer_1" enable-background="new 0 0 512.002 512.002" height="512" viewBox="0 0 512.002 512.002" width="512" xmlns="http://www.w3.org/2000/svg"><g><g clip-rule="evenodd" fill-rule="evenodd"><path d="m209.262 60.138-13.261 356.864h120l-13.261-356.864-46.739-50.138z" fill="#faf7f6"/><path d="m316.001 417.002h-120-10c-5.5 0-10 4.5-10 10v30h160v-30c0-5.5-4.5-10-10-10z" fill="#f5eeec"/><path d="m336.001 457.002h-160-50c-5.5 0-10 4.5-10 10v35h279.999v-35c0-5.499-4.5-10-10-10z" fill="#f0e6e2"/></g><g><path d="m386.001 447.002h-40v-.001-19.999c0-11.028-8.972-20-20-20h-.364l-12.904-347.235c-.089-2.401-1.04-4.69-2.678-6.447l-46.739-50.138c-1.891-2.03-4.541-3.182-7.315-3.182s-5.423 1.152-7.314 3.181l-46.739 50.138c-1.639 1.758-2.589 4.047-2.679 6.448l-12.903 347.235h-.365c-11.028 0-20 8.972-20 20v19.999.001h-40c-11.028 0-20 8.972-20 20v35c0 5.522 4.477 10 10 10h280c5.523 0 10-4.478 10-10v-35c0-11.028-8.972-20-20-20zm-166.884-382.771 36.884-39.566 36.884 39.566 12.738 342.771h-99.243zm166.884 427.771h-260v-25h84.997c5.523 0 10-4.478 10-10s-4.477-10-10-10h-24.997v-.001-19.999h140v19.999.001h-25.003c-5.523 0-10 4.478-10 10s4.477 10 10 10h85.003z"/><path d="m270.086 338.501h-28.17c-5.523 0-10 4.478-10 10s4.477 10 10 10h28.17c5.523 0 10-4.478 10-10s-4.477-10-10-10z"/><path d="m244.313 308.501h23.377c5.523 0 10-4.478 10-10s-4.477-10-10-10h-23.377c-5.523 0-10 4.478-10 10s4.477 10 10 10z"/><path d="m246.112 258.501h19.778c5.523 0 10-4.478 10-10s-4.477-10-10-10h-19.778c-5.523 0-10 4.478-10 10s4.477 10 10 10z"/><path d="m247.76 208.501h16.482c5.523 0 10-4.478 10-10s-4.477-10-10-10h-16.482c-5.523 0-10 4.478-10 10s4.477 10 10 10z"/><path d="m249.861 158.502h12.28c5.523 0 10-4.478 10-10s-4.477-10-10-10h-12.28c-5.523 0-10 4.478-10 10s4.477 10 10 10z"/><path d="m252.561 108.502h6.88c5.523 0 10-4.478 10-10s-4.477-10-10-10h-6.88c-5.523 0-10 4.478-10 10s4.477 10 10 10z"/><path d="m256.001 447.002h-.007c-5.523 0-9.996 4.478-9.996 10s4.48 10 10.003 10 10-4.478 10-10-4.477-10-10-10z"/></g></g></svg>