<svg id="Capa_1" enable-background="new 0 0 508 508" height="512" viewBox="0 0 508 508" width="512" xmlns="http://www.w3.org/2000/svg"><g><ellipse cx="198.799" cy="309.201" fill="#ff9eb1" rx="34.363" ry="28.804" transform="matrix(.707 -.707 .707 .707 -160.411 231.135)"/><ellipse cx="149.905" cy="358.096" fill="#8aa8bd" rx="56.956" ry="47.742" transform="matrix(.707 -.707 .707 .707 -209.306 210.882)"/><path d="m497.997 306.997h-47.034c-55.332-38.322-80.61-109.025-62.068-173.751 17.451-17.45 38.437-38.437 56.469-56.468-2.109 12.177-3.493 27.706-3.144 40.531.167 6.142 5.006 9.759 9.99 9.83 6.096.086 10.009-5.332 10.01-10.17.006-27.067 3.665-47.006 10.922-67.969 8.21-8.209 13.31-13.31 13.31-13.31 3.905-3.905 3.905-10.237 0-14.142-3.904-3.905-10.236-3.905-14.143 0 0 0-5.093 5.093-13.292 13.292-63.994 22.137-135.462 9.76-187.026-32.569-4.269-3.503-10.568-2.884-14.074 1.385-3.504 4.269-2.873 10.557 1.385 14.074 65.892 54.432 142.73 50.754 171.953 44.873-18.027 18.027-39.014 39.013-56.467 56.467-14.105 4.056-37.4 8.834-67.447 4.3-5.769-.871-10.646 3.275-11.4 8.37-.807 5.454 2.932 10.487 8.37 11.4 19.529 3.28 39.244 1.739 45.293 1.114-6.941 6.941-11.164 11.164-11.167 11.167-24.248 24.21-61.301 30.347-92.225 15.264-27.243-13.288-44.562-40.376-45.21-70.705v-11.214c5.379 5.747 11.079 11.2 17.23 16.144 4.125 3.316 10.447 3.058 14.07-1.42 3.469-4.288 2.85-10.58-1.42-14.07-11.434-9.342-21.457-20.25-29.879-32.425v-46.993c0-3.489-1.818-6.726-4.799-8.541-2.979-1.814-6.689-1.945-9.791-.344-42.535 21.971-91.607 28.15-138.174 17.401-5.383-1.242-10.751 2.113-11.993 7.495-1.242 5.381 2.113 10.75 7.495 11.993 45.936 10.603 94.081 6.222 137.261-12.243v30.881c-37.688 47.358-99.387 70.478-158.878 59.51l-4.931-5.103c-3.838-3.972-10.169-4.08-14.14-.242s-4.08 10.168-.242 14.14l5.745 5.945c12.122 31.704 11.194 66.145-2.682 97.203-2.253 5.042-.053 11.1 5.051 13.209 6.593 2.726 11.548-1.334 13.209-5.051 10.978-24.571 14.947-50.972 11.886-76.941l72.535 75.061c3.221 3.206 9.286 4.819 14.14.242 4.018-3.789 4.08-10.168.242-14.14l-16.896-17.485c14.517 1.524 27.562-.813 38.33-4.722l2.079 43.002c.082 1.694.593 3.34 1.486 4.782l22.635 36.553c-1.04 1.088-2.027 2.212-2.958 3.374l-43.412-25.379c-.878-.513-1.829-.89-2.82-1.116l-71.615-16.356c-5.387-1.23-10.746 2.138-11.976 7.522-1.229 5.384 2.138 10.746 7.522 11.976l70.117 16.013 31.176 18.226c-3.454.684-6.899 1.638-10.298 2.881l-54.089-3.334c-2.73-.168-5.424.795-7.432 2.664l-59.604 55.527c-4.041 3.765-4.264 10.273-.5 14.133 5.445 5.584 12.156 2.624 14.133.5l56.46-52.598 23.037 1.42c-27.276 28.004-26.622 66.511-5.754 87.379 20.867 20.867 59.507 21.278 87.379-5.757l1.42 23.039-52.598 56.461c-3.765 4.041-3.488 10.313.5 14.133 4.384 4.199 11.159 2.981 14.133-.5l55.527-59.604c1.87-2.007 2.833-4.694 2.664-7.432l-3.334-54.089c1.243-3.399 2.197-6.844 2.881-10.298l18.226 31.176 16.013 70.118c1.059 4.635 5.629 8.7 11.976 7.522 5.43-1.008 8.752-6.591 7.522-11.976l-16.354-71.613c-.227-.991-.603-1.942-1.116-2.82l-25.379-43.411c1.162-.931 2.286-1.918 3.374-2.958l36.553 22.635c1.442.893 3.088 1.404 4.782 1.486l42.986 2.078c-4.53 12.461-6.039 25.573-4.706 38.333l-17.488-16.899c-3.971-3.838-10.303-3.729-14.141.242-3.838 3.972-3.729 10.302.242 14.14l75.059 72.534c-25.964-3.06-52.364.911-76.938 11.887-5.042 2.252-7.305 8.166-5.052 13.209 2.252 5.043 8.168 7.303 13.209 5.052 31.064-13.876 65.504-14.807 97.201-2.685l5.947 5.747c3.112 3.004 9.403 4.52 14.141-.242 3.895-3.915 3.729-10.302-.242-14.14l-5.103-4.931c-10.966-59.49 12.153-121.19 59.51-158.878h30.882c-18.465 43.18-22.847 91.325-12.243 137.261 1.068 4.625 5.829 8.935 11.993 7.495 5.378-1.257 8.737-6.611 7.495-11.993-10.75-46.567-4.57-95.638 17.4-138.173 1.602-3.1 1.471-6.811-.344-9.791-1.812-2.981-5.048-4.8-8.538-4.8zm-145.428-137.424c.003-.003 4.217-4.217 11.126-11.126-5.469 53.198 13.627 109.65 55.463 148.552h-11.14c-30.328-.648-57.417-17.967-70.704-45.21-15.08-30.921-8.948-67.969 15.255-92.216zm-208.607 7.19c-25.257 12.319-55.467 7.361-75.188-12.334l-24.842-25.707c58.295 2.149 105.779-21.851 137.069-52.313v32.48c-.551 24.825-14.736 46.996-37.039 57.874zm22.338 60.96-2.394-49.523c14.059-9.68 24.764-23.187 30.978-38.773 5.268 8.934 11.939 17.003 19.777 23.954l-20.492 61.878c-.263.796-.426 1.622-.483 2.458l-2.185 31.8c-1.512.465-3.01 1.021-4.493 1.649zm10.293 147.06c-16.647 16.646-43.786 22.282-59.891 6.515-14.279-13.979-12.497-40.959 6.516-59.89 19.783-19.698 46.75-19.827 59.89-6.515 14.619 14.811 11.792 41.582-6.515 59.89zm35.502-62.286c-1.361 1.362-2.825 2.573-4.364 3.629-2.488-5.645-5.964-10.857-10.482-15.376-4.518-4.518-9.73-7.994-15.374-10.481 1.055-1.539 2.266-3.003 3.628-4.365 9.499-9.499 23.184-11.255 30.523-3.931 6.265 6.253 6.781 19.801-3.931 30.524zm-.457-54.286 1.914-27.864 18.127-54.737c29.524 16.978 57.631 13.246 64.335 12.231l-51.705 51.705c-3.905 3.905-3.873 10.206 0 14.143 4.368 4.44 11.013 3.279 14.143 0l51.729-51.729c-2.802 19.42-.014 43.331 12.209 64.36l-54.738 18.127-27.81 1.91c-1.322-7.087-4.606-13.458-9.674-18.526-5.142-5.142-11.586-8.327-18.53-9.62zm58.64 73.49-33.408-20.688c.632-1.481 1.176-2.99 1.648-4.517l31.766-2.182c.836-.058 1.662-.22 2.458-.483l61.845-20.481c6.955 7.838 15.049 14.496 23.985 19.765-15.587 6.215-29.094 16.92-38.774 30.979zm98.987 122.356-25.682-24.818c-19.706-19.721-24.669-49.938-12.346-75.202 10.877-22.303 33.048-36.488 57.873-37.039h32.48c-31.88 33.744-53.558 78.131-52.325 137.059zm112.905-264.577c6.438 13.041 14.395 25.31 23.56 36.53 3.496 4.281 2.893 10.53-1.39 14.07-4.469 3.694-10.888 2.501-14.07-1.38-10.154-12.385-18.92-25.95-26.029-40.35-2.692-5.543.034-11.172 4.529-13.41 3.867-1.925 10.44-1.456 13.4 4.54zm-209.401-78.83c0 5.523-4.477 10-10 10s-10-4.477-10-10 4.477-10 10-10 10 4.477 10 10zm195.135 41.045c0 5.525-4.479 10.005-10.005 10.005-5.525 0-10.005-4.479-10.005-10.005s4.479-10.005 10.005-10.005c5.525 0 10.005 4.479 10.005 10.005z"/></g></svg>